<svg width="19029" height="11535" viewBox="0 0 19029 11535" fill="none" xmlns="http://www.w3.org/2000/svg">
<path d="M10009.9 3483.21V9824C10009.9 10526.6 9610.26 11086.7 8808.91 11504.8C8444.48 11683 7465.88 11007.3 7047.83 11077.8C7358.14 10926.8 7614.83 10763.9 7814.92 10590.2C8014.02 10417.4 8159.49 10233.6 8248.86 10037.5C8364.54 9769.88 8422.64 9432.23 8422.64 9022.59V7767.84C8260.78 7928.72 8089.98 8034.48 7910.74 8083.64C7842.72 8102.5 7773.21 8113.43 7701.72 8115.41C7701.72 8115.41 6986.76 8115.91 5946.59 8115.91C6242.5 7726.13 6321.45 7016.08 5889.49 6778.24C5791.68 6723.12 5685.92 6681.41 5579.18 6644.17C5448.1 6597.99 5312.56 6559.26 5181.98 6515.57C4765.91 6374.55 4696.4 6251.41 4935.22 5891.42C5056.36 5709.19 5185.95 5542.35 5283.76 5342.75C5382.07 5142.15 5459.52 4931.12 5514.63 4714.63C5654.64 4163.97 5473.42 3719.07 4855.28 3075.56C4854.29 3074.56 5577.69 3071.09 5579.18 3071.09C5904.38 3073.57 6179.45 3151.03 6235.05 3169.9C6428.69 3235.44 6607.93 3337.73 6759.36 3474.77C7110.39 3792.56 7236 4317.4 7176.42 4778.18C7135.21 5098.95 7167.48 5444.54 7167.48 5769.27C7167.48 5954.98 7167.48 6141.18 7167.48 6326.89C7167.48 6611.9 7296.08 6802.57 7553.76 6900.39C7625.26 6927.7 7701.22 6941.1 7781.65 6941.1H8422.14V3070.59L10009.9 3483.21Z" fill="#47BCC2"/>
<path d="M14025.6 10094.1C14030.1 10096.1 14035.6 10098.6 14040 10100.6C14034.6 10099.6 14028.1 10098.6 14022.7 10098.6C14023.2 10097.1 14024.2 10095.1 14025.6 10094.1Z" fill="#47BCC2"/>
<path d="M13272.5 9612.97C13154.8 9510.69 13056.5 9404.92 12977.5 9295.68C12921.4 9218.72 12875.3 9140.27 12839 9060.33C12730.3 8809.58 12672.7 8496.76 12666.2 8120.38V6791.64V5963.92V414.113L11077.9 0V2505.53V8846.32C11077.9 9546.44 11474.1 10104.5 12270 10523.1C12273.5 10524.1 12275.5 10526.6 12279 10527.6C12340.5 10557.4 12419 10563.8 12508.8 10551.9C12508.8 10551.9 12509.8 10552.9 12510.8 10551.9C12951.2 10499.3 13667.7 10056.4 14022.2 10098.6C14023.2 10097.6 14024.2 10095.1 14025.6 10094.1C13721.8 9944.16 13469.6 9784.77 13272.5 9612.97Z" fill="#47BCC2"/>
<path d="M3820.08 6427.19C3781.35 6742.98 4185.5 6843.28 4414.39 6948.05C4424.32 6952.52 4433.25 6957.99 4441.69 6962.45C4443.68 6963.45 4445.17 6963.45 4447.16 6964.44C4482.41 6983.31 4517.66 6999.69 4551.92 7018.56C4725.69 7113.4 4892.02 7220.16 4892.02 7468.92C4893.01 7653.63 4578.23 8116.41 4578.23 8116.41L3197.46 8065.76C3197.46 8065.76 2765.01 7294.64 2682.59 7081.62C2494.92 6595.02 2778.42 6079.11 3011.28 5609.88C3087.74 5455.96 3186.54 5307.99 3209.88 5138.17C3264.99 4736.47 2924.88 4407.27 2598.68 4237.95C2430.87 4150.56 2253.62 4093.95 2064.95 4095.44C2031.18 4095.94 1587.31 4100.41 1587.31 4107.36V8108.96C1587.31 8108.96 34.2585 8116.9 0 8116.9V3338.22L1587.31 2924.11V3264.24C1661.29 3190.26 1737.26 3128.68 1814.21 3079.53C1883.72 3042.29 1956.21 3010.01 2032.18 2986.18C2052.04 2979.72 2071.9 2972.77 2091.76 2967.31C2111.62 2961.85 2131.48 2956.39 2151.34 2952.91C2219.36 2935.53 2288.87 2924.11 2359.37 2916.66C2495.91 2902.26 2636.91 2902.26 2773.45 2916.66C2813.17 2921.13 2852.89 2925.6 2892.12 2932.06C3002.34 2949.43 3108.09 2976.25 3207.89 3009.02C3436.78 3084.99 3651.27 3195.22 3850.86 3330.28C3855.33 3333.75 3860.79 3336.73 3865.26 3340.21C4101.09 3517.47 4354.81 3706.65 4546.95 3934.07C4721.72 4140.63 4848.33 4399.82 4845.85 4670.43C4842.87 4960.41 4693.92 5218.61 4516.17 5438.08C4329.48 5668.48 4145.28 5881.49 3968.53 6120.82C3953.14 6141.68 3937.75 6162.53 3923.35 6184.88C3873.2 6258.36 3830.01 6338.8 3820.08 6427.19Z" fill="#47BCC2"/>
<path d="M18324.8 7005.16C18320.4 6987.78 18316.9 6972.39 18314.9 6955.5V6403.85C18315.9 6352.21 18316.9 6307.02 18316.9 6276.24C18316.9 6276.24 18316.9 3375.47 18314.9 3374.47L17804 3240.41L16723.6 2951.42L16722.1 3709.64C16321.5 3789.08 15294.2 3125.21 14946.7 3310.92C14327 3665.44 13938.3 4114.31 13784.3 4657.03C13780.9 4662.49 13779.9 4668.95 13779.9 4674.41C13776.4 4685.33 13773.4 4696.26 13770.9 4707.68C13769 4717.61 13766.5 4728.53 13764.5 4739.45C13717.3 4970.84 13706.4 5201.73 13706.4 5434.11C13706.4 5614.85 13712.9 5796.09 13712.9 5977.82V6849.74C13712.9 6919.26 13718.3 6987.28 13728.2 7055.8C13736.2 7106.45 13745.6 7156.1 13760 7204.27C13789.8 7311.02 13834 7414.3 13891.1 7514.6C13893.1 7520.07 13896.6 7524.54 13900 7530C13949.7 7607.95 14002.3 7677.47 14060.9 7739.04C14150.3 7836.86 14250.1 7917.3 14359.3 7975.89C14469.5 8036.47 14591.7 8077.18 14721.2 8099.03C14743.1 8102.51 14765.4 8105.48 14787.3 8107.97C14810.6 8109.95 14832.5 8112.44 14855.3 8113.43C14884.1 8114.42 14912.4 8115.42 14941.2 8115.42H15982.4C16006.7 8115.42 16032 8114.42 16058.3 8111.94C16073.7 8110.95 16089.1 8109.95 16105.5 8107.47C16119.9 8105.48 16134.3 8104 16148.2 8102.01C16192.4 8093.07 16234.1 8082.15 16274.8 8069.24C16299.1 8061.29 16323.5 8052.85 16347.3 8041.93C16359.2 8036.47 16370.6 8032 16382.5 8026.53C16394.4 8021.07 16406.9 8015.61 16418.8 8009.16C16430.7 8003.69 16442.1 7997.24 16453 7990.29C16471.9 7980.36 16490.3 7969.43 16509.1 7957.02C16521.1 7949.08 16533.5 7939.64 16546.4 7930.7C16565.2 7917.3 16583.6 7903.39 16601.5 7888C16614.9 7877.08 16627.8 7867.15 16641.2 7854.73C16664.5 7833.88 16686.4 7810.54 16708.2 7787.7C16711.7 7784.22 16713.7 7781.25 16717.2 7777.77C16728.1 7764.36 16739 7751.45 16750.4 7738.05C16750.4 7737.05 16751.4 7736.06 16752.4 7734.57C16762.4 7721.16 16773.3 7708.25 16782.2 7694.85C16794.1 7680.45 16805.6 7665.06 16815.5 7649.66C16834.3 7623.35 16850.7 7595.54 16867.1 7566.24C16875.1 7552.84 16882.5 7539.93 16889 7526.52C16900.9 7505.67 16912.3 7483.82 16921.7 7461.48C16923.7 7457.01 16926.2 7452.54 16928.2 7448.07C16932.7 7452.54 16937.1 7458 16942.6 7464.45C16947.1 7470.91 16951.5 7478.85 16956 7489.78C16966.9 7505.17 16977.8 7519.57 16991.2 7533.97C16999.2 7547.38 17008.6 7558.3 17018.6 7569.22C17077.1 7640.73 17141.7 7705.77 17211.2 7762.87C17233 7781.74 17256.4 7799.12 17280.7 7817.99C17302.5 7833.38 17325.9 7848.77 17350.2 7864.17C17362.1 7872.11 17374.5 7879.56 17386.5 7886.01C17408.3 7899.42 17431.6 7911.34 17453.5 7924.74C17520.5 7960 17590 7989.79 17665 8015.11C17674.9 8018.59 17684.9 8021.57 17695.8 8026.04C17702.2 8028.02 17710.2 8029.51 17717.6 8032.49C17768.3 8048.88 17820.9 8062.29 17876 8073.21C17931.1 8084.13 17987.2 8093.07 18045.3 8099.53C18091.5 8104.99 18138.7 8109.46 18187.3 8111.44C18210.6 8112.44 18236 8113.43 18259.8 8113.43C18276.2 8114.42 18296 8114.42 18315.9 8114.42H18849.6C18871.5 8114.42 18893.8 8113.43 18916.7 8110.95C18917.7 8110.95 18917.7 8110.95 18918.7 8110.95C18927.6 8109.95 18937.5 8108.96 18946 8107.47C18955.9 8107.47 18965.8 8106.48 18975.8 8103.99C18982.2 8103.99 18989.2 8103 18995.6 8100.52C19006.5 8098.53 19017.5 8096.05 19028.9 8092.57C18631.7 7668.53 18396.3 7340.82 18324.8 7005.16ZM16727.6 6941.1H15894.5C15815 6941.1 15730.6 6923.72 15641.3 6888.47C15392.5 6781.71 15267.9 6590.05 15267.9 6313.98V5766.79C15267.9 5611.38 15276.8 5465.39 15294.2 5329.84C15319.5 5088.52 15371.2 4877.49 15448.1 4696.75C15457.1 4675.9 15467 4656.04 15477.9 4634.19C15479.9 4629.72 15483.4 4624.26 15485.9 4619.79C15610.5 4366.55 15825 4135.17 16101 4065.16C16110.9 4061.68 16121.9 4059.69 16131.8 4057.21C16178 4048.27 16664.5 4051.75 16721.6 4062.67C16725.1 4062.67 16727.1 4062.67 16727.1 4063.67V6941.1H16727.6Z" fill="#47BCC2"/>
</svg>
